<?xml version="1.0" encoding="utf-8"?>
<svg version="1.1" xmlns:xlink="http://www.w3.org/1999/xlink" width="10px" height="19px" xmlns="http://www.w3.org/2000/svg">
  <g transform="matrix(1 0 0 1 -1001 -14 )">
    <path d="M 7.36111111111111 0  C 8.49537037037037 0  9.375 0.0456730769230768  10 0.13701923076923  L 10 3.15144230769231  L 8.18287037037037 3.15144230769231  C 7.51929012345679 3.15144230769231  7.07175925925926 3.28846153846154  6.84027777777778 3.5625  C 6.6087962962963 3.83653846153846  6.49305555555556 4.24759615384615  6.49305555555556 4.79567307692308  L 6.49305555555556 6.95372596153846  L 9.88425925925926 6.95372596153846  L 9.43287037037037 10.3335336538462  L 6.49305555555556 10.3335336538462  L 6.49305555555556 19  L 2.95138888888889 19  L 2.95138888888889 10.3335336538462  L 0 10.3335336538462  L 0 6.95372596153846  L 2.95138888888889 6.95372596153846  L 2.95138888888889 4.46454326923077  C 2.95138888888889 3.04867788461538  3.35262345679012 1.95062099358974  4.15509259259259 1.17037259615385  C 4.95756172839506 0.39012419871795  6.02623456790124 0  7.36111111111111 0  Z " fill-rule="nonzero" fill="#ffffff" stroke="none" transform="matrix(1 0 0 1 1001 14 )" />
  </g>
</svg>