<?xml version="1.0" encoding="utf-8"?>
<svg version="1.1" xmlns:xlink="http://www.w3.org/1999/xlink" width="26px" height="17px" xmlns="http://www.w3.org/2000/svg">
  <g transform="matrix(1 0 0 1 -1082 -15 )">
    <path d="M 16.0807291666667 7.28240109140518  C 16.1710069444444 7.76944065484311  16.2161458333333 8.24101864483856  16.2161458333333 8.69713506139154  C 16.2161458333333 10.3051386994088  15.8888888888889 11.737266939518  15.234375 12.993519781719  C 14.5798611111111 14.24977262392  13.6469907407407 15.2315825375171  12.4357638888889 15.9389495225102  C 11.224537037037 16.6463165075034  9.8365162037037 17  8.27170138888889 17  C 7.15075231481482 17  6.07870370370371 16.7758071850841  5.05555555555556 16.3274215552524  C 4.03240740740741 15.8790359254206  3.15219907407407 15.2760345611642  2.41493055555556 14.5184174624829  C 1.67766203703704 13.7608003638017  1.09085648148148 12.856298317417  0.654513888888889 11.8049113233288  C 0.218171296296296 10.7535243292406  0 9.6518872214643  0 8.5  C 0 7.3481127785357  0.218171296296296 6.24647567075943  0.654513888888889 5.19508867667121  C 1.09085648148148 4.14370168258299  1.67766203703704 3.23919963619827  2.41493055555556 2.48158253751705  C 3.15219907407407 1.72396543883583  4.03240740740741 1.12096407457935  5.05555555555556 0.672578444747612  C 6.07870370370371 0.22419281491587  7.15075231481482 0  8.27170138888889 0  C 10.4233217592593 0  12.2702546296296 0.742155525238744  13.8125 2.22646657571623  L 11.5668402777778 4.44133697135061  C 10.6866319444444 3.56775807185084  9.58825231481482 3.13096862210095  8.27170138888889 3.13096862210095  C 7.34635416666667 3.13096862210095  6.49059606481482 3.3706230104593  5.70442708333333 3.84993178717599  C 4.91825810185185 4.32924056389268  4.29571759259259 4.98055934515689  3.83680555555556 5.80388813096862  C 3.37789351851852 6.62721691678035  3.1484375 7.52592087312415  3.1484375 8.5  C 3.1484375 9.47407912687585  3.37789351851852 10.3727830832196  3.83680555555556 11.1961118690314  C 4.29571759259259 12.0194406548431  4.91825810185185 12.6707594361073  5.70442708333333 13.150068212824  C 6.49059606481482 13.6293769895407  7.34635416666667 13.869031377899  8.27170138888889 13.869031377899  C 8.89612268518519 13.869031377899  9.46976273148148 13.7801273306048  9.99262152777778 13.6023192360164  C 10.5154803240741 13.4245111414279  10.9461805555556 13.2022510231924  11.2847222222222 12.9355388813097  C 11.6232638888889 12.668826739427  11.9185474537037 12.3653933606185  12.1705729166667 12.025238744884  C 12.4225983796296 11.6850841291496  12.6069155092593 11.3642564802183  12.7235243055556 11.06275579809  C 12.8401331018519 10.7612551159618  12.9210069444444 10.475216007276  12.9661458333333 10.2046384720327  L 8.27170138888889 10.2046384720327  L 8.27170138888889 7.28240109140518  L 16.0807291666667 7.28240109140518  Z M 23.6414930555556 7.28240109140518  L 26 7.28240109140518  L 26 9.71759890859482  L 23.6414930555556 9.71759890859482  L 23.6414930555556 12.1412005457026  L 21.2717013888889 12.1412005457026  L 21.2717013888889 9.71759890859482  L 18.9131944444444 9.71759890859482  L 18.9131944444444 7.28240109140518  L 21.2717013888889 7.28240109140518  L 21.2717013888889 4.85879945429741  L 23.6414930555556 4.85879945429741  L 23.6414930555556 7.28240109140518  Z " fill-rule="nonzero" fill="#ffffff" stroke="none" transform="matrix(1 0 0 1 1082 15 )" />
  </g>
</svg>