<?xml version="1.0" encoding="utf-8"?>
<svg version="1.1" xmlns:xlink="http://www.w3.org/1999/xlink" width="17px" height="17px" xmlns="http://www.w3.org/2000/svg">
  <g transform="matrix(1 0 0 1 -1025 -15 )">
    <path d="M 10.5032552083333 10.5032552083333  C 11.056640625 9.94986979166667  11.3333333333333 9.28211805555556  11.3333333333333 8.5  C 11.3333333333333 7.71788194444444  11.056640625 7.05013020833333  10.5032552083333 6.49674479166667  C 9.94986979166667 5.943359375  9.28211805555556 5.66666666666667  8.5 5.66666666666667  C 7.71788194444444 5.66666666666667  7.05013020833333 5.943359375  6.49674479166667 6.49674479166667  C 5.943359375 7.05013020833333  5.66666666666667 7.71788194444444  5.66666666666667 8.5  C 5.66666666666667 9.28211805555556  5.943359375 9.94986979166667  6.49674479166667 10.5032552083333  C 7.05013020833333 11.056640625  7.71788194444444 11.3333333333333  8.5 11.3333333333333  C 9.28211805555556 11.3333333333333  9.94986979166667 11.056640625  10.5032552083333 10.5032552083333  Z M 11.587890625 5.412109375  C 12.4364149305556 6.26063368055555  12.8606770833333 7.28993055555555  12.8606770833333 8.5  C 12.8606770833333 9.71006944444444  12.4364149305556 10.7393663194444  11.587890625 11.587890625  C 10.7393663194444 12.4364149305556  9.71006944444444 12.8606770833333  8.5 12.8606770833333  C 7.28993055555556 12.8606770833333  6.26063368055556 12.4364149305556  5.412109375 11.587890625  C 4.56358506944444 10.7393663194444  4.13932291666667 9.71006944444444  4.13932291666667 8.5  C 4.13932291666667 7.28993055555555  4.56358506944444 6.26063368055555  5.412109375 5.412109375  C 6.26063368055556 4.56358506944444  7.28993055555556 4.13932291666667  8.5 4.13932291666667  C 9.71006944444444 4.13932291666667  10.7393663194444 4.56358506944444  11.587890625 5.412109375  Z M 13.7571614583333 3.24283854166667  C 13.9563802083333 3.44205729166667  14.0559895833333 3.68185763888889  14.0559895833333 3.96223958333333  C 14.0559895833333 4.24262152777778  13.9563802083333 4.482421875  13.7571614583333 4.681640625  C 13.5579427083333 4.880859375  13.3181423611111 4.98046875  13.0377604166667 4.98046875  C 12.7573784722222 4.98046875  12.517578125 4.880859375  12.318359375 4.681640625  C 12.119140625 4.482421875  12.01953125 4.24262152777778  12.01953125 3.96223958333333  C 12.01953125 3.68185763888889  12.119140625 3.44205729166667  12.318359375 3.24283854166667  C 12.517578125 3.04361979166667  12.7573784722222 2.94401041666667  13.0377604166667 2.94401041666667  C 13.3181423611111 2.94401041666667  13.5579427083333 3.04361979166667  13.7571614583333 3.24283854166667  Z M 9.3466796875 1.52180989583333  C 8.83387586805556 1.52549913194444  8.55164930555556 1.52734375  8.5 1.52734375  C 8.44835069444444 1.52734375  8.16612413194444 1.52549913194444  7.6533203125 1.52180989583333  C 7.14051649305556 1.51812065972222  6.75130208333333 1.51812065972222  6.48567708333333 1.52180989583333  C 6.22005208333333 1.52549913194444  5.86404079861111 1.53656684027778  5.41764322916667 1.55501302083333  C 4.97124565972222 1.57345920138889  4.59125434027778 1.6103515625  4.27766927083333 1.66569010416667  C 3.96408420138889 1.72102864583333  3.70030381944444 1.78927951388889  3.486328125 1.87044270833333  C 3.11740451388889 2.01801215277778  2.79275173611111 2.23198784722222  2.51236979166667 2.51236979166667  C 2.23198784722222 2.79275173611111  2.01801215277778 3.11740451388889  1.87044270833333 3.486328125  C 1.78927951388889 3.70030381944444  1.72102864583333 3.96408420138889  1.66569010416667 4.27766927083333  C 1.6103515625 4.59125434027778  1.57345920138889 4.97124565972222  1.55501302083333 5.41764322916667  C 1.53656684027778 5.86404079861111  1.52549913194444 6.22005208333333  1.52180989583333 6.48567708333333  C 1.51812065972222 6.75130208333333  1.51812065972222 7.14051649305555  1.52180989583333 7.6533203125  C 1.52549913194444 8.16612413194444  1.52734375 8.44835069444444  1.52734375 8.5  C 1.52734375 8.55164930555556  1.52549913194444 8.83387586805556  1.52180989583333 9.3466796875  C 1.51812065972222 9.85948350694444  1.51812065972222 10.2486979166667  1.52180989583333 10.5143229166667  C 1.52549913194444 10.7799479166667  1.53656684027778 11.1359592013889  1.55501302083333 11.5823567708333  C 1.57345920138889 12.0287543402778  1.6103515625 12.4087456597222  1.66569010416667 12.7223307291667  C 1.72102864583333 13.0359157986111  1.78927951388889 13.2996961805556  1.87044270833333 13.513671875  C 2.01801215277778 13.8825954861111  2.23198784722222 14.2072482638889  2.51236979166667 14.4876302083333  C 2.79275173611111 14.7680121527778  3.11740451388889 14.9819878472222  3.486328125 15.1295572916667  C 3.70030381944444 15.2107204861111  3.96408420138889 15.2789713541667  4.27766927083333 15.3343098958333  C 4.59125434027778 15.3896484375  4.97124565972222 15.4265407986111  5.41764322916667 15.4449869791667  C 5.86404079861111 15.4634331597222  6.22005208333333 15.4745008680556  6.48567708333333 15.4781901041667  C 6.75130208333333 15.4818793402778  7.14051649305556 15.4818793402778  7.6533203125 15.4781901041667  C 8.16612413194444 15.4745008680556  8.44835069444444 15.47265625  8.5 15.47265625  C 8.55164930555556 15.47265625  8.83387586805556 15.4745008680556  9.3466796875 15.4781901041667  C 9.85948350694444 15.4818793402778  10.2486979166667 15.4818793402778  10.5143229166667 15.4781901041667  C 10.7799479166667 15.4745008680556  11.1359592013889 15.4634331597222  11.5823567708333 15.4449869791667  C 12.0287543402778 15.4265407986111  12.4087456597222 15.3896484375  12.7223307291667 15.3343098958333  C 13.0359157986111 15.2789713541667  13.2996961805556 15.2107204861111  13.513671875 15.1295572916667  C 13.8825954861111 14.9819878472222  14.2072482638889 14.7680121527778  14.4876302083333 14.4876302083333  C 14.7680121527778 14.2072482638889  14.9819878472222 13.8825954861111  15.1295572916667 13.513671875  C 15.2107204861111 13.2996961805556  15.2789713541667 13.0359157986111  15.3343098958333 12.7223307291667  C 15.3896484375 12.4087456597222  15.4265407986111 12.0287543402778  15.4449869791667 11.5823567708333  C 15.4634331597222 11.1359592013889  15.4745008680556 10.7799479166667  15.4781901041667 10.5143229166667  C 15.4818793402778 10.2486979166667  15.4818793402778 9.85948350694444  15.4781901041667 9.3466796875  C 15.4745008680556 8.83387586805556  15.47265625 8.55164930555556  15.47265625 8.5  C 15.47265625 8.44835069444444  15.4745008680556 8.16612413194444  15.4781901041667 7.6533203125  C 15.4818793402778 7.14051649305555  15.4818793402778 6.75130208333333  15.4781901041667 6.48567708333333  C 15.4745008680556 6.22005208333333  15.4634331597222 5.86404079861111  15.4449869791667 5.41764322916667  C 15.4265407986111 4.97124565972222  15.3896484375 4.59125434027778  15.3343098958333 4.27766927083333  C 15.2789713541667 3.96408420138889  15.2107204861111 3.70030381944444  15.1295572916667 3.486328125  C 14.9819878472222 3.11740451388889  14.7680121527778 2.79275173611111  14.4876302083333 2.51236979166667  C 14.2072482638889 2.23198784722222  13.8825954861111 2.01801215277778  13.513671875 1.87044270833333  C 13.2996961805556 1.78927951388889  13.0359157986111 1.72102864583333  12.7223307291667 1.66569010416667  C 12.4087456597222 1.6103515625  12.0287543402778 1.57345920138889  11.5823567708333 1.55501302083333  C 11.1359592013889 1.53656684027778  10.7799479166667 1.52549913194444  10.5143229166667 1.52180989583333  C 10.2486979166667 1.51812065972222  9.85948350694444 1.51812065972222  9.3466796875 1.52180989583333  Z M 16.9446614583333 4.99153645833333  C 16.9815538194444 5.64084201388889  17 6.81032986111111  17 8.5  C 17 10.1896701388889  16.9815538194444 11.3591579861111  16.9446614583333 12.0084635416667  C 16.8708767361111 13.5431857638889  16.4134114583333 14.7311197916667  15.572265625 15.572265625  C 14.7311197916667 16.4134114583333  13.5431857638889 16.8708767361111  12.0084635416667 16.9446614583333  C 11.3591579861111 16.9815538194444  10.1896701388889 17  8.5 17  C 6.81032986111111 17  5.64084201388889 16.9815538194444  4.99153645833333 16.9446614583333  C 3.45681423611111 16.8708767361111  2.26888020833333 16.4134114583333  1.427734375 15.572265625  C 0.586588541666667 14.7311197916667  0.129123263888889 13.5431857638889  0.0553385416666667 12.0084635416667  C 0.0184461805555556 11.3591579861111  0 10.1896701388889  0 8.5  C 0 6.81032986111111  0.0184461805555556 5.64084201388889  0.0553385416666667 4.99153645833333  C 0.129123263888889 3.45681423611111  0.586588541666667 2.26888020833333  1.427734375 1.427734375  C 2.26888020833333 0.586588541666667  3.45681423611111 0.129123263888888  4.99153645833333 0.0553385416666673  C 5.64084201388889 0.0184461805555532  6.81032986111111 0  8.5 0  C 10.1896701388889 0  11.3591579861111 0.0184461805555532  12.0084635416667 0.0553385416666673  C 13.5431857638889 0.129123263888888  14.7311197916667 0.586588541666667  15.572265625 1.427734375  C 16.4134114583333 2.26888020833333  16.8708767361111 3.45681423611111  16.9446614583333 4.99153645833333  Z " fill-rule="nonzero" fill="#ffffff" stroke="none" transform="matrix(1 0 0 1 1025 15 )" />
  </g>
</svg>