<?xml version="1.0" encoding="utf-8"?>
<svg version="1.1" xmlns:xlink="http://www.w3.org/1999/xlink" width="17px" height="15px" xmlns="http://www.w3.org/2000/svg">
  <g transform="matrix(1 0 0 1 -1054 -16 )">
    <path d="M 14.993654822335 2.3671875  C 15.6624365482234 2.2890625  16.3312182741117 2.09375  17 1.78125  C 16.5181895093063 2.546875  15.9357021996616 3.19921875  15.252538071066 3.73828125  C 15.2597292724196 3.84765625  15.2633248730964 4.01171875  15.2633248730964 4.23046875  C 15.2633248730964 5.24609375  15.1266920473773 6.259765625  14.8534263959391 7.271484375  C 14.5801607445008 8.283203125  14.1648688663283 9.25390625  13.6075507614213 10.18359375  C 13.0502326565144 11.11328125  12.3868443316413 11.935546875  11.617385786802 12.650390625  C 10.8479272419628 13.365234375  9.92026226734349 13.935546875  8.83439086294416 14.361328125  C 7.74851945854484 14.787109375  6.58714043993232 15  5.3502538071066 15  C 3.40143824027073 15  1.61802030456853 14.43359375  0 13.30078125  C 0.251692047377327 13.33203125  0.532148900169205 13.34765625  0.841370558375635 13.34765625  C 2.45939086294416 13.34765625  3.90122673434856 12.80859375  5.16687817258883 11.73046875  C 4.41180203045685 11.71484375  3.73582910321489 11.462890625  3.13895939086294 10.974609375  C 2.542089678511 10.486328125  2.13219120135364 9.86328125  1.90926395939086 9.10546875  C 2.14657360406091 9.14453125  2.36590524534687 9.1640625  2.56725888324873 9.1640625  C 2.87648054145516 9.1640625  3.18210659898477 9.12109375  3.48413705583756 9.03515625  C 2.67872250423012 8.85546875  2.0117385786802 8.419921875  1.48318527918782 7.728515625  C 0.954631979695431 7.037109375  0.690355329949239 6.234375  0.690355329949239 5.3203125  L 0.690355329949239 5.2734375  C 1.17935702199662 5.5703125  1.70431472081218 5.73046875  2.26522842639594 5.75390625  C 1.79060913705584 5.41015625  1.41307106598985 4.9609375  1.13261421319797 4.40625  C 0.852157360406091 3.8515625  0.711928934010152 3.25  0.711928934010152 2.6015625  C 0.711928934010152 1.9140625  0.870135363790186 1.27734375  1.18654822335025 0.691406250000001  C 2.05668358714044 1.85546875  3.11558798646362 2.787109375  4.3632614213198 3.486328125  C 5.61093485617597 4.185546875  6.94670050761421 4.57421875  8.37055837563452 4.65234375  C 8.31302876480541 4.35546875  8.28426395939086 4.06640625  8.28426395939086 3.78515625  C 8.28426395939086 2.73828125  8.62404822335025 1.845703125  9.30361675126903 1.107421875  C 9.98318527918782 0.369140625000001  10.8047800338409 0  11.7684010152284 0  C 12.7751692047377 0  13.623730964467 0.398437500000001  14.3140862944162 1.1953125  C 15.0979272419628 1.03125  15.8350253807107 0.7265625  16.5253807106599 0.281250000000001  C 16.2593062605753 1.1796875  15.748730964467 1.875  14.993654822335 2.3671875  Z " fill-rule="nonzero" fill="#ffffff" stroke="none" transform="matrix(1 0 0 1 1054 16 )" />
  </g>
</svg>